<?xml version="1.0" standalone="no"?><!DOCTYPE svg PUBLIC "-//W3C//DTD SVG 1.1//EN" "http://www.w3.org/Graphics/SVG/1.1/DTD/svg11.dtd"><svg t="1723370114292" class="icon" viewBox="0 0 1028 1024" version="1.1" xmlns="http://www.w3.org/2000/svg" p-id="12129" xmlns:xlink="http://www.w3.org/1999/xlink" width="200.78125" height="200"><path d="M601.258311 149.925809a253.462018 253.462018 0 0 1 283.043792 180.179896l-57.818922-19.497078a17.480139 17.480139 0 0 0-21.514017 10.084696 16.807826 16.807826 0 0 0 10.757008 20.841704l85.383757 28.909461h12.773948a18.824765 18.824765 0 0 0 8.067757-8.067756l32.271026-80.677566a16.807826 16.807826 0 0 0-9.412383-21.514017 16.807826 16.807826 0 0 0-21.514017 8.740069l-13.446261 32.94334a288.422297 288.422297 0 0 0-313.29788-184.886088 16.135513 16.135513 0 0 0-14.118574 17.480139 16.807826 16.807826 0 0 0 18.824766 14.118574zM209.972118 705.256385l56.474296 24.875583a16.807826 16.807826 0 0 0 22.18633-8.74007 16.135513 16.135513 0 0 0-8.740069-21.514017l-82.694505-36.304905a16.807826 16.807826 0 0 0-11.429322 0 16.135513 16.135513 0 0 0-8.740069 7.395444L134.673057 748.956733a16.807826 16.807826 0 0 0 29.581774 14.790887l16.135513-31.598713A287.077671 287.077671 0 0 0 463.434136 941.238264h15.4632a17.480139 17.480139 0 0 0 16.135513-17.480139 16.807826 16.807826 0 0 0-17.480139-16.135513 254.134331 254.134331 0 0 1-267.580592-202.366227z" p-id="12130" fill="#1afa29"></path><path d="M433.852362 529.78268h-403.387827a30.9264 30.9264 0 0 1-22.858644-10.757009 31.598713 31.598713 0 0 1-7.395443-24.203269A134.462609 134.462609 0 0 1 111.814413 383.218436c15.4632 0 49.751165-8.067757 53.112731-22.858643a170.767514 170.767514 0 0 1-38.321844-57.146609 104.880835 104.880835 0 0 1-33.615652-80.005253 90.089948 90.089948 0 0 1 9.412383-47.061913 162.027444 162.027444 0 0 1 19.497078-121.016348 67.231305 67.231305 0 0 1 41.011096-24.20327A144.547305 144.547305 0 0 1 324.937649 20.169391a146.564244 146.564244 0 0 1 49.751165 157.993566 96.140766 96.140766 0 0 1 9.412383 45.717287 105.553148 105.553148 0 0 1-32.943339 80.005253 173.456766 173.456766 0 0 1-32.94334 57.146609c0 6.72313 6.72313 16.135513 47.734227 22.18633A114.293218 114.293218 0 0 1 464.106449 499.528593a30.254087 30.254087 0 0 1-30.254087 30.254087zM74.837196 470.619132h321.365636a49.751165 49.751165 0 0 0-38.994157-26.220209C289.305057 432.969601 257.706344 403.387827 257.706344 358.342853V349.602784A28.909461 28.909461 0 0 1 269.135666 328.088766a124.377913 124.377913 0 0 0 30.254087-54.457356 28.909461 28.909461 0 0 1 20.169392-21.514018 88.745322 88.745322 0 0 0 6.050817-28.909461 121.016348 121.016348 0 0 0 0-14.790887 30.9264 30.9264 0 0 1-9.412383-30.9264 94.123826 94.123826 0 0 0-21.514017-106.897774 88.073009 88.073009 0 0 0-100.174644 14.118574 31.598713 31.598713 0 0 1-17.480139 5.378504 105.553148 105.553148 0 0 0-9.412383 88.745322 31.598713 31.598713 0 0 1-8.740069 22.858644l-4.033879 6.72313a110.25934 110.25934 0 0 0 0 14.790887 81.349879 81.349879 0 0 0 6.050818 27.564835 29.581774 29.581774 0 0 1 20.169391 21.514018 128.411792 128.411792 0 0 0 36.977218 54.457356 30.9264 30.9264 0 0 1 8.740069 21.514018v10.084695c0 32.271026-18.152452 73.282122-105.553148 84.711444a67.231305 67.231305 0 0 0-46.3896 27.564835zM134.673057 215.812488zM995.906069 1023.932769H605.292189a30.9264 30.9264 0 0 1-22.858644-10.757009 31.598713 31.598713 0 0 1-6.72313-24.20327 128.411792 128.411792 0 0 1 108.914713-109.587026c14.790887 0 47.734226-8.067757 51.768105-21.514018a174.129079 174.129079 0 0 1-37.649531-55.801982 102.863896 102.863896 0 0 1-32.943339-78.660627 98.157705 98.157705 0 0 1 9.412383-46.3896 155.976627 155.976627 0 0 1 18.824765-117.654783 67.231305 67.231305 0 0 1 40.338783-24.20327 141.18574 141.18574 0 0 1 159.338192-10.084695A142.530366 142.530366 0 0 1 941.448712 679.036176a110.931653 110.931653 0 0 1-23.530957 123.705601 157.993566 157.993566 0 0 1-31.598713 55.801982c0 6.72313 6.72313 14.790887 45.717287 20.841705a111.603966 111.603966 0 0 1 96.140766 114.293218 30.254087 30.254087 0 0 1-32.271026 30.254087z m-348.258158-60.508174h310.608627a46.3896 46.3896 0 0 0-36.977218-22.186331c-67.231305-10.084696-97.485392-36.304904-97.485391-84.039131v-10.084695a30.9264 30.9264 0 0 1 8.740069-21.514018 118.327096 118.327096 0 0 0 29.581774-53.11273 30.9264 30.9264 0 0 1 20.169392-21.514018 129.084105 129.084105 0 0 0 6.050817-26.892522 55.801983 55.801983 0 0 0 0-14.790887 29.581774 29.581774 0 0 1-8.740069-30.254087 93.451513 93.451513 0 0 0-20.841705-104.208522 85.383757 85.383757 0 0 0-96.813078 14.118574 33.615652 33.615652 0 0 1-18.152453 5.378504 105.553148 105.553148 0 0 0-8.067756 86.05607 31.598713 31.598713 0 0 1-5.378505 25.547896l-4.033878 4.033878a91.434574 91.434574 0 0 0 0 13.446261 77.988313 77.988313 0 0 0 6.050818 26.892522 28.237148 28.237148 0 0 1 19.497078 20.841704 129.084105 129.084105 0 0 0 35.632591 53.112731 28.909461 28.909461 0 0 1 9.412383 21.514018v9.412382c0 32.271026-18.152452 72.609809-104.208522 84.039131a60.508174 60.508174 0 0 0-45.044974 24.20327z m56.474296-246.066575z" fill="#1afa29" p-id="12131"></path></svg>