<?xml version="1.0" standalone="no"?><!DOCTYPE svg PUBLIC "-//W3C//DTD SVG 1.1//EN" "http://www.w3.org/Graphics/SVG/1.1/DTD/svg11.dtd"><svg t="1724581171616" class="icon" viewBox="0 0 1024 1024" version="1.1" xmlns="http://www.w3.org/2000/svg" p-id="9148" xmlns:xlink="http://www.w3.org/1999/xlink" width="200" height="200"><path d="M240.6 384.6v45.1h-85.4c-6.3 0-11.4 7.7-11.4 17.1v5.8c0 9.5 5.1 17.1 11.4 17.1h208.1c6.3 0 11.4-7.7 11.4-17.1v-5.8c0-9.5-5.1-17.1-11.4-17.1h-82.7v-45.1h140.6c32.8 0 59.6-28.8 59.6-64.3v-190c0-35.4-26.7-64.3-59.6-64.3H126.5c-32.8 0-59.6 28.8-59.6 64.3v190.1c0 35.4 26.7 64.3 59.6 64.3h114.1v-0.1z m-133.7-64.2V130.3c0-13.4 8.8-24.3 19.6-24.3h294.7c10.8 0 19.6 10.9 19.6 24.3v190.1c0 13.4-8.8 24.3-19.6 24.3H126.5c-10.8-0.1-19.6-11-19.6-24.3zM906.9 546.2H559.3c-25.8 0-46.7 23.1-46.7 51.7v221.8c0 28.5 20.9 51.7 46.7 51.7h154.1v47.3h-85.9c-6 0-10.9 7.3-10.9 16.3v7.3c0 9 4.9 16.3 10.9 16.3h209.2c6 0 10.9-7.3 10.9-16.3V935c0-9-4.9-16.3-10.9-16.3h-83.2v-47.3H907c25.8 0 46.7-23.1 46.7-51.7V597.9c-0.2-28.5-21.1-51.7-46.8-51.7zM532.3 147.7h331V431c0 11 9 20 20 20s20-9 20-20V107.7h-371c-11 0-20 9-20 20s9 20 20 20zM473.7 889.8h-331V606.5c0-11-9-20-20-20s-20 9-20 20v323.4h371c11 0 20-9 20-20s-8.9-20.1-20-20.1z" fill="#5fe468" p-id="9149"></path><path d="M396 313H153c-11 0-20-9-20-20V153c0-11 9-20 20-20h243c11 0 20 9 20 20v140c0 11-9 20-20 20z" fill="#5fe468" p-id="9150"></path></svg>